<?xml version="1.0" encoding="UTF-8"?>
<svg id="Ebene_2" xmlns="http://www.w3.org/2000/svg" version="1.1" viewBox="0 0 541.8 263.3">
  <!-- Generator: Adobe Illustrator 29.0.0, SVG Export Plug-In . SVG Version: 2.1.0 Build 186)  -->
  <defs>
    <style>
      .st0 {
        fill: #fff;
      }
    </style>
  </defs>
  <g>
    <polygon class="st0" points="40.3 92.8 23 43.6 .1 43.6 28.8 114.6 51.8 114.6 80.4 43.6 57.6 43.6 40.3 92.8"/>
    <path class="st0" d="M143.8,43.6l-28.7,70.9h22.8l4-11.2h26.7l4,11.2h22.8l-28.7-70.9h-23ZM148.8,83.7l6.4-18.3,6.4,18.3h-12.9Z"/>
    <rect class="st0" x="86.3" y="43.5" width="22.8" height="71"/>
    <rect class="st0" x="279.1" y="43.5" width="22.8" height="71"/>
    <path class="st0" d="M363.4,43.7h-.1c0-.1-50-.1-50-.1v70.9h50c12.6,0,22.8-10.2,22.8-22.8v-25.1c0-12.6-10.2-22.8-22.7-22.8ZM355,94.8h-18.8v-31.6h0s18.8,0,18.8,0c4.6,0,8.3,1.4,8.3,5.1v21.5c0,3.6-3.7,5.1-8.3,5.1Z"/>
    <path class="st0" d="M246.5,42.4h-27.1c-12.6,0-22.8,10.2-22.8,22.8v26.5h0s0,0,0,0c0,12.6,10.2,22.8,22.8,22.8h0s27.1,0,27.1,0c12.6,0,22.8-10.2,22.8-22.8v-7h-22.8v4.6c0,3.6-3.7,5.1-8.3,5.1h-10.5c-4.6,0-8.3-1.4-8.3-5.1v-21.7c0-3.7,3.7-5.1,8.3-5.1h10.5c4.6,0,8.3,1.4,8.3,5.1v3.3h22.8v-5.7c0-12.6-10.2-22.8-22.8-22.8Z"/>
  </g>
  <path class="st0" d="M5.5,215.9v.5c0,1,.7,1.4,1.6,1.4h2.1c.9,0,1.6-.4,1.6-1.4v-.3c0-1.6-9.2-2.1-9.2-7.6v-1.7c0-2.2,1.9-4.3,5.3-4.3h2.3c3.6,0,5.5,2.1,5.5,4.3v2.4h-4.5v-1.4c0-1-.7-1.4-1.6-1.4h-1c-.9,0-1.6.4-1.6,1.4v.3c0,1.8,9.2,2.4,9.2,7.2v2.1c0,2.2-2,4.3-5.5,4.3h-2.9c-3.7,0-5.8-2.1-5.8-4.3v-1.5h4.5,0Z"/>
  <path class="st0" d="M28.4,221.6v-15h-4.4v-4h12.8v4h-3.9v15h-4.5Z"/>
  <path class="st0" d="M46.1,221.6v-18.9h8.4c3.6,0,5.5,2.1,5.5,4.4v4.1c0,1.5-.9,2.9-2.4,3.6l2.9,6.9h-4.7l-2.7-6.2h-2.7v6.2h-4.5ZM50.5,206.7v4.8h3.4c.9,0,1.6-.4,1.6-1.4v-2.1c0-1-.7-1.4-1.6-1.4h-3.4Z"/>
  <path class="st0" d="M79.3,202.7l6.2,18.9h-4.5l-1-3.3h-6l-.9,3.3h-4.5l6.2-18.9h4.5ZM75.2,214.4h3.7l-1.8-6.1s-1.8,6.1-1.8,6.1Z"/>
  <path class="st0" d="M98.2,215.9v.5c0,1,.7,1.4,1.6,1.4h2.1c.9,0,1.6-.4,1.6-1.4v-.3c0-1.6-9.2-2.1-9.2-7.6v-1.7c0-2.2,1.9-4.3,5.3-4.3h2.3c3.6,0,5.5,2.1,5.5,4.3v2.4h-4.5v-1.4c0-1-.7-1.4-1.6-1.4h-1c-.9,0-1.6.4-1.6,1.4v.3c0,1.8,9.2,2.4,9.2,7.2v2.1c0,2.2-2,4.3-5.5,4.3h-2.9c-3.7,0-5.8-2.1-5.8-4.3v-1.5h4.5Z"/>
  <path class="st0" d="M121.7,215.9v.5c0,1,.7,1.4,1.6,1.4h2.1c.9,0,1.6-.4,1.6-1.4v-.3c0-1.6-9.2-2.1-9.2-7.6v-1.7c0-2.2,1.9-4.3,5.3-4.3h2.3c3.6,0,5.5,2.1,5.5,4.3v2.4h-4.5v-1.4c0-1-.7-1.4-1.6-1.4h-1c-.9,0-1.6.4-1.6,1.4v.3c0,1.8,9.2,2.4,9.2,7.2v2.1c0,2.2-2,4.3-5.5,4.3h-2.9c-3.7,0-5.8-2.1-5.8-4.3v-1.5h4.5Z"/>
  <path class="st0" d="M153.2,221.6h-12.2v-18.9h11.9v4h-7.4v3.5h6.4v4h-6.4v3.6h7.7v4h0Z"/>
  <path class="st0" d="M163.1,221.6v-18.9h4.5l5.3,9.7v-9.7h4.5v18.9h-4.5l-5.3-9.7v9.7h-4.5Z"/>
  <path class="st0" d="M195.9,221.8h-2.9c-3.7,0-5.8-2.1-5.8-4.3v-14.8h4.5v13.8c0,1,.7,1.4,1.6,1.4h2.1c.9,0,1.6-.4,1.6-1.4v-13.8h4.5v14.8c0,2.2-2,4.3-5.5,4.3h0Z"/>
  <path class="st0" d="M211.3,221.6v-18.9h4.5l5.3,9.7v-9.7h4.5v18.9h-4.5l-5.3-9.7v9.7h-4.5Z"/>
  <path class="st0" d="M239.2,221.6v-15h-4.4v-4h12.8v4h-3.9v15h-4.5Z"/>
  <path class="st0" d="M269.1,221.6h-12.2v-18.9h11.9v4h-7.5v3.5h6.4v4h-6.4v3.6h7.7v4h0Z"/>
  <path class="st0" d="M279.1,221.6v-18.9h8.4c3.6,0,5.5,2.1,5.5,4.4v4.1c0,1.5-.9,2.9-2.4,3.6l2.9,6.9h-4.6l-2.7-6.2h-2.7v6.2h-4.5ZM283.5,206.7v4.8h3.4c.9,0,1.6-.4,1.6-1.4v-2.1c0-1-.7-1.4-1.6-1.4h-3.4Z"/>
  <path class="st0" d="M303.1,221.6v-18.9h4.5v7.1h5.3v-7.1h4.5v18.9h-4.5v-7.9h-5.3v7.9h-4.5Z"/>
  <path class="st0" d="M337,202.7l6.2,18.9h-4.5l-1-3.3h-6l-1,3.3h-4.5l6.2-18.9h4.5ZM332.9,214.4h3.6l-1.8-6.1-1.8,6.1Z"/>
  <path class="st0" d="M363.9,221.6h-11.6v-18.9h4.5v15h7.2v4h0Z"/>
  <path class="st0" d="M373.5,221.6v-15h-4.4v-4h12.8v4h-3.9v15h-4.5Z"/>
  <path class="st0" d="M10.1,263.3h-2.9c-3.7,0-5.8-2.1-5.8-4.3v-14.8h4.5v13.8c0,1,.7,1.4,1.6,1.4h2c.9,0,1.6-.4,1.6-1.4v-13.8h4.5v14.8c0,2.2-2,4.3-5.5,4.3Z"/>
  <path class="st0" d="M25.5,263.1v-18.9h4.5l5.3,9.7v-9.7h4.5v18.9h-4.5l-5.3-9.7v9.7h-4.5Z"/>
  <path class="st0" d="M49.6,244.3h8.7c3.6,0,5.5,2.1,5.5,4.3v10.3c0,2.2-2,4.3-5.5,4.3h-8.7v-18.9h0ZM54.1,248.2v11h3.7c.9,0,1.6-.4,1.6-1.4v-8.3c0-1-.7-1.4-1.6-1.4h-3.7Z"/>
  <path class="st0" d="M88.1,244.3h7.6c3.6,0,5.5,2.4,5.5,5.1v1c0,1.1-.4,2.1-1.3,2.8,1.5.9,2.3,2.3,2.3,3.8v.6c0,2.9-2,5.5-5.5,5.5h-8.7v-18.9ZM92.6,248.2v3.3h2.6c.9,0,1.6-.4,1.6-1.4v-.6c0-1-.7-1.4-1.6-1.4h-2.6ZM92.6,255.4v3.7h3.7c.9,0,1.6-.4,1.6-1.4v-1c0-1-.7-1.4-1.6-1.4h-3.7Z"/>
  <path class="st0" d="M120.8,244.2l6.2,18.9h-4.5l-1-3.3h-6l-.9,3.3h-4.5l6.2-18.9h4.5ZM116.7,255.9h3.7l-1.8-6.1-1.8,6.1Z"/>
  <path class="st0" d="M144.2,263.3h-2.9c-3.7,0-5.8-2.1-5.8-4.3v-14.8h4.5v13.8c0,1,.7,1.4,1.6,1.4h2.1c.9,0,1.6-.4,1.6-1.4v-13.8h4.5v14.8c0,2.2-2,4.3-5.5,4.3h0Z"/>
  <path class="st0" d="M163.8,257.5v.5c0,1,.7,1.4,1.6,1.4h2.1c.9,0,1.6-.4,1.6-1.4v-.3c0-1.6-9.2-2.1-9.2-7.6v-1.7c0-2.2,1.9-4.3,5.3-4.3h2.3c3.6,0,5.5,2.1,5.5,4.3v2.4h-4.5v-1.4c0-1-.7-1.4-1.6-1.4h-1c-.9,0-1.6.4-1.6,1.4v.3c0,1.8,9.2,2.4,9.2,7.2v2c0,2.2-2,4.3-5.5,4.3h-2.9c-3.7,0-5.8-2.1-5.8-4.3v-1.5h4.5,0Z"/>
  <path class="st0" d="M186.6,263.1v-15h-4.4v-4h12.8v4h-3.9v15h-4.5Z"/>
  <path class="st0" d="M209.6,263.3c-3.7,0-5.8-2.1-5.8-4.3v-10.6c0-2.2,2.1-4.3,5.8-4.3h2.9c3.6,0,5.5,2.1,5.5,4.3v10.6c0,2.2-2,4.3-5.5,4.3h-2.9ZM211.9,259.3c.9,0,1.6-.4,1.6-1.4v-8.6c0-1-.7-1.4-1.6-1.4h-2.1c-.9,0-1.6.4-1.6,1.4v8.6c0,1,.7,1.4,1.6,1.4h2.1Z"/>
  <path class="st0" d="M227.6,263.1v-18.9h11.9v4h-7.4v3.9h7v4h-7v7h-4.5Z"/>
  <path class="st0" d="M248.9,263.1v-18.9h11.9v4h-7.4v3.9h7v4h-7v7h-4.5,0Z"/>
  <path class="st0" d="M282.3,263.1h-12.2v-18.9h11.9v4h-7.5v3.5h6.4v4h-6.4v3.6h7.7v4h0Z"/>
  <rect class="st0" y="0" width="541.8" height="3"/>
  <rect class="st0" y="152.7" width="382.5" height="8.9"/>
</svg>